ffmpeg started on 2016-12-05 at 23:55:52
Report written to "Output/x264/results/ffmpeg/crowd_run_2160p50fast500k.log"
Command line:
Tools/ffmpeg/ffmpeg -benchmark -y -i Input/y4m/crowd_run_2160p50.y4m -c:v libx264 -preset fast -b:v 500k -an Output/x264/encoded/crowd_run_2160p50fast500k.mkv
ffmpeg version N-82227-gdb23fde Copyright (c) 2000-2016 the FFmpeg developers
  built with gcc 5.4.0 (Ubuntu 5.4.0-6ubuntu1~16.04.2) 20160609
  configuration: --prefix=/home/jaroslav/ffmpeg_build --pkg-config-flags=--static --extra-cflags=-I/home/jaroslav/ffmpeg_build/include --extra-ldflags=-L/home/jaroslav/ffmpeg_build/lib --bindir=/home/jaroslav/bin --enable-gpl --enable-libass --enable-libfdk-aac --enable-libfreetype --enable-libmp3lame --enable-libopus --enable-libtheora --enable-libvorbis --enable-libvpx --enable-libx264 --enable-libx265 --enable-nvenc --enable-libmfx --enable-libxvid --enable-libgsm --enable-libopencore-amrnb --enable-version3 --enable-nonfree
  libavutil      55. 35.100 / 55. 35.100
  libavcodec     57. 66.101 / 57. 66.101
  libavformat    57. 57.100 / 57. 57.100
  libavdevice    57.  2.100 / 57.  2.100
  libavfilter     6. 66.100 /  6. 66.100
  libswscale      4.  3.100 /  4.  3.100
  libswresample   2.  4.100 /  2.  4.100
  libpostproc    54.  2.100 / 54.  2.100
Input #0, yuv4mpegpipe, from 'Input/y4m/crowd_run_2160p50.y4m':
  Duration: 00:00:10.00, start: 0.000000, bitrate: 4976642 kb/s
    Stream #0:0: Video: rawvideo (I420 / 0x30323449), yuv420p(progressive), 3840x2160, SAR 1:1 DAR 16:9, 50 fps, 50 tbr, 50 tbn, 50 tbc
[libx264 @ 0x3a781c0] using SAR=1/1
[libx264 @ 0x3a781c0] using cpu capabilities: MMX2 SSE2Fast SSSE3 SSE4.2 AVX FMA3 AVX2 LZCNT BMI2
[libx264 @ 0x3a781c0] profile High, level 5.2
[libx264 @ 0x3a781c0] 264 - core 148 - H.264/MPEG-4 AVC codec - Copyleft 2003-2016 - http://www.videolan.org/x264.html - options: cabac=1 ref=2 deblock=1:0:0 analyse=0x3:0x113 me=hex subme=6 psy=1 psy_rd=1.00:0.00 mixed_ref=1 me_range=16 chroma_me=1 trellis=1 8x8dct=1 cqm=0 deadzone=21,11 fast_pskip=1 chroma_qp_offset=-2 threads=6 lookahead_threads=1 sliced_threads=0 nr=0 decimate=1 interlaced=0 bluray_compat=0 constrained_intra=0 bframes=3 b_pyramid=2 b_adapt=1 b_bias=0 direct=1 weightb=1 open_gop=0 weightp=1 keyint=250 keyint_min=25 scenecut=40 intra_refresh=0 rc_lookahead=30 rc=abr mbtree=1 bitrate=500 ratetol=1.0 qcomp=0.60 qpmin=0 qpmax=69 qpstep=4 ip_ratio=1.40 aq=1:1.00
Output #0, matroska, to 'Output/x264/encoded/crowd_run_2160p50fast500k.mkv':
  Metadata:
    encoder         : Lavf57.57.100
    Stream #0:0: Video: h264 (libx264) (H264 / 0x34363248), yuv420p, 3840x2160 [SAR 1:1 DAR 16:9], q=-1--1, 500 kb/s, 50 fps, 1k tbn, 50 tbc
    Metadata:
      encoder         : Lavc57.66.101 libx264
    Side data:
      cpb: bitrate max/min/avg: 0/0/500000 buffer size: 0 vbv_delay: -1
Stream mapping:
  Stream #0:0 -> #0:0 (rawvideo (native) -> h264 (libx264))
Press [q] to stop, [?] for help
frame=   19 fps=0.0 q=0.0 size=       0kB time=00:00:00.00 bitrate=N/A speed=   0x    frame=   34 fps= 32 q=0.0 size=       0kB time=00:00:00.00 bitrate=N/A speed=   0x    frame=   37 fps= 14 q=0.0 size=       0kB time=00:00:00.00 bitrate=N/A speed=   0x    frame=   46 fps= 14 q=65.0 size=       1kB time=00:00:00.06 bitrate=  96.3kbits/s speed=0.0183x    frame=   54 fps= 14 q=69.0 size=       1kB time=00:00:00.22 bitrate=  26.6kbits/s speed=0.0568x    frame=   62 fps= 14 q=69.0 size=       1kB time=00:00:00.38 bitrate=  15.4kbits/s speed=0.0863x    frame=   71 fps= 14 q=69.0 size=       1kB time=00:00:00.56 bitrate=  10.5kbits/s speed=0.114x    frame=   80 fps= 15 q=69.0 size=       1kB time=00:00:00.74 bitrate=   7.9kbits/s speed=0.136x    frame=   89 fps= 15 q=69.0 size=       1kB time=00:00:00.92 bitrate=   6.4kbits/s speed=0.154x    frame=   98 fps= 15 q=69.0 size=       1kB time=00:00:01.10 bitrate=   5.3kbits/s speed=0.166x    frame=  106 fps= 15 q=69.0 size=       1kB time=00:00:01.26 bitrate=   4.7kbits/s speed=0.176x    frame=  114 fps= 15 q=69.0 size=       1kB time=00:00:01.42 bitrate=   4.1kbits/s speed=0.186x    frame=  123 fps= 15 q=69.0 size=       1kB time=00:00:01.60 bitrate=   3.7kbits/s speed=0.196x    frame=  132 fps= 15 q=69.0 size=       1kB time=00:00:01.78 bitrate=   3.3kbits/s speed=0.205x    frame=  141 fps= 15 q=69.0 size=       1kB time=00:00:01.96 bitrate=   3.0kbits/s speed=0.213x    frame=  150 fps= 15 q=69.0 size=       1kB time=00:00:02.14 bitrate=   2.7kbits/s speed=0.217x    frame=  159 fps= 15 q=69.0 size=       1kB time=00:00:02.32 bitrate=   2.5kbits/s speed=0.224x    frame=  168 fps= 15 q=69.0 size=       1kB time=00:00:02.50 bitrate=   2.3kbits/s speed=0.229x    frame=  177 fps= 15 q=69.0 size=       1kB time=00:00:02.68 bitrate=   2.2kbits/s speed=0.235x    frame=  186 fps= 15 q=69.0 size=       1kB time=00:00:02.86 bitrate=   2.1kbits/s speed=0.237x    frame=  195 fps= 15 q=69.0 size=       1kB time=00:00:03.04 bitrate=   1.9kbits/s speed=0.242x    frame=  204 fps= 16 q=69.0 size=       1kB time=00:00:03.22 bitrate=   1.8kbits/s speed=0.246x    frame=  213 fps= 16 q=69.0 size=       1kB time=00:00:03.40 bitrate=   1.7kbits/s speed=0.25x    frame=  222 fps= 16 q=69.0 size=       1kB time=00:00:03.58 bitrate=   1.6kbits/s speed=0.251x    frame=  231 fps= 16 q=69.0 size=       1kB time=00:00:03.76 bitrate=   1.6kbits/s speed=0.254x    frame=  240 fps= 16 q=69.0 size=       1kB time=00:00:03.94 bitrate=   1.5kbits/s speed=0.257x    frame=  249 fps= 16 q=69.0 size=       1kB time=00:00:04.12 bitrate=   1.4kbits/s speed=0.26x    frame=  258 fps= 16 q=69.0 size=       1kB time=00:00:04.30 bitrate=   1.4kbits/s speed=0.261x    frame=  267 fps= 16 q=69.0 size=       1kB time=00:00:04.48 bitrate=   1.3kbits/s speed=0.264x    frame=  276 fps= 16 q=69.0 size=       1kB time=00:00:04.66 bitrate=   1.3kbits/s speed=0.266x    frame=  285 fps= 16 q=69.0 size=       1kB time=00:00:04.84 bitrate=   1.2kbits/s speed=0.268x    frame=  287 fps= 15 q=69.0 size=       1kB time=00:00:04.88 bitrate=   1.2kbits/s speed=0.257x    frame=  293 fps= 15 q=69.0 size=     801kB time=00:00:05.00 bitrate=1312.8kbits/s speed=0.255x    frame=  304 fps= 15 q=69.0 size=     801kB time=00:00:05.22 bitrate=1257.5kbits/s speed=0.259x    frame=  313 fps= 15 q=69.0 size=     801kB time=00:00:05.40 bitrate=1215.6kbits/s speed=0.261x    frame=  322 fps= 15 q=69.0 size=     801kB time=00:00:05.58 bitrate=1176.4kbits/s speed=0.263x    frame=  331 fps= 15 q=69.0 size=     801kB time=00:00:05.76 bitrate=1139.6kbits/s speed=0.265x    frame=  339 fps= 15 q=69.0 size=     801kB time=00:00:05.92 bitrate=1108.8kbits/s speed=0.263x    frame=  348 fps= 15 q=69.0 size=     801kB time=00:00:06.10 bitrate=1076.1kbits/s speed=0.265x    frame=  357 fps= 15 q=69.0 size=     801kB time=00:00:06.28 bitrate=1045.3kbits/s speed=0.266x    frame=  366 fps= 15 q=69.0 size=     801kB time=00:00:06.46 bitrate=1016.1kbits/s speed=0.268x    frame=  375 fps= 15 q=69.0 size=     801kB time=00:00:06.64 bitrate= 988.6kbits/s speed=0.27x    frame=  384 fps= 15 q=69.0 size=     801kB time=00:00:06.82 bitrate= 962.5kbits/s speed=0.27x    frame=  393 fps= 15 q=69.0 size=     801kB time=00:00:07.00 bitrate= 937.8kbits/s speed=0.272x    frame=  399 fps= 15 q=69.0 size=     801kB time=00:00:07.12 bitrate= 922.0kbits/s speed=0.271x    frame=  408 fps= 15 q=69.0 size=     801kB time=00:00:07.30 bitrate= 899.2kbits/s speed=0.272x    frame=  417 fps= 15 q=69.0 size=     801kB time=00:00:07.48 bitrate= 877.6kbits/s speed=0.274x    frame=  426 fps= 15 q=69.0 size=     801kB time=00:00:07.66 bitrate= 857.0kbits/s speed=0.275x    frame=  435 fps= 15 q=69.0 size=     801kB time=00:00:07.84 bitrate= 837.3kbits/s speed=0.276x    frame=  444 fps= 15 q=69.0 size=     801kB time=00:00:08.02 bitrate= 818.5kbits/s speed=0.276x    frame=  453 fps= 15 q=69.0 size=     801kB time=00:00:08.20 bitrate= 800.5kbits/s speed=0.278x    frame=  462 fps= 15 q=69.0 size=     801kB time=00:00:08.38 bitrate= 783.4kbits/s speed=0.279x    frame=  471 fps= 15 q=69.0 size=     801kB time=00:00:08.56 bitrate= 766.9kbits/s speed=0.28x    frame=  480 fps= 15 q=69.0 size=     801kB time=00:00:08.74 bitrate= 751.1kbits/s speed=0.28x    frame=  489 fps= 15 q=69.0 size=     801kB time=00:00:08.92 bitrate= 735.9kbits/s speed=0.281x    frame=  498 fps= 15 q=69.0 size=     801kB time=00:00:09.10 bitrate= 721.4kbits/s speed=0.282x    frame=  500 fps= 15 q=-1.0 Lsize=    1363kB time=00:00:09.94 bitrate=1123.4kbits/s speed=0.295x    
video:1359kB audio:0kB subtitle:0kB other streams:0kB global headers:0kB muxing overhead: 0.310487%
bench: utime=94.164s
bench: maxrss=1593880kB
[libx264 @ 0x3a781c0] frame I:2     Avg QP:51.00  size: 18666
[libx264 @ 0x3a781c0] frame P:126   Avg QP:51.00  size:  5905
[libx264 @ 0x3a781c0] frame B:372   Avg QP:51.00  size:  1639
[libx264 @ 0x3a781c0] consecutive B-frames:  0.8%  0.0%  0.0% 99.2%
[libx264 @ 0x3a781c0] mb I  I16..4: 74.9% 25.1%  0.0%
[libx264 @ 0x3a781c0] mb P  I16..4: 11.6%  0.4%  0.0%  P16..4:  5.3%  0.2%  2.8%  0.0%  0.0%    skip:79.6%
[libx264 @ 0x3a781c0] mb B  I16..4:  0.0%  0.0%  0.0%  B16..8:  2.7%  0.0%  0.0%  direct: 0.0%  skip:97.2%  L0:48.1% L1:51.9% BI: 0.0%
[libx264 @ 0x3a781c0] final ratefactor: 67.68
[libx264 @ 0x3a781c0] 8x8 transform intra:6.2% inter:99.4%
[libx264 @ 0x3a781c0] coded y,uvDC,uvAC intra: 0.5% 2.3% 0.0% inter: 0.0% 0.0% 0.0%
[libx264 @ 0x3a781c0] i16 v,h,dc,p: 93%  6%  1%  0%
[libx264 @ 0x3a781c0] i8 v,h,dc,ddl,ddr,vr,hd,vl,hu: 14%  6% 70%  3%  2%  2%  2%  1%  1%
[libx264 @ 0x3a781c0] i8c dc,h,v,p: 100%  0%  0%  0%
[libx264 @ 0x3a781c0] Weighted P-Frames: Y:1.6% UV:0.0%
[libx264 @ 0x3a781c0] ref P L0: 64.2% 35.8%
[libx264 @ 0x3a781c0] ref B L0: 71.1% 28.9%
[libx264 @ 0x3a781c0] ref B L1: 84.2% 15.8%
[libx264 @ 0x3a781c0] kb/s:1112.80
